<?xml version="1.0" encoding="UTF-8"?>
<svg width="76px" height="88px" viewBox="0 0 76 88" version="1.1" xmlns="http://www.w3.org/2000/svg" xmlns:xlink="http://www.w3.org/1999/xlink">
    <!-- Generator: Sketch 53 (72520) - https://sketchapp.com -->
    <title>Fill 1</title>
    <desc>Created with Sketch.</desc>
    <g id="PAGE/-Artboards" stroke="none" stroke-width="1" fill="none" fill-rule="evenodd">
        <g id="Drawer-Copy" transform="translate(-122.000000, -233.000000)" fill="#D61920">
            <g id="Group-4" transform="translate(16.000000, 84.000000)">
                <g id="Group-3" transform="translate(94.000000, 144.000000)">
                    <path d="M31.7335,44.5525833 C30.596,45.7025833 29.586,46.9350833 28.7035,48.2300833 L34.816,51.9775833 C35.406,51.1525833 36.066,50.3650833 36.801,49.6225833 C44.2385,42.1125833 56.3085,42.1225833 63.756,49.6450833 C64.4885,50.3850833 65.1485,51.1675833 65.736,51.9900833 L71.836,48.2500833 C70.951,46.9600833 69.9435,45.7325833 68.8085,44.5825833 C58.561,34.2075833 41.9635,34.1950833 31.7335,44.5525833 M56.411,57.0625833 C56.541,57.1975833 56.6685,57.3350833 56.7885,57.4750833 L62.0835,54.2300833 C61.6535,53.6400833 61.1735,53.0750833 60.6485,52.5400833 C54.916,46.7350833 45.6335,46.7275833 39.911,52.5225833 C39.3835,53.0600833 38.9035,53.6275833 38.4735,54.2175833 L43.7685,57.4675833 C43.8935,57.3250833 44.0185,57.1875833 44.151,57.0525833 C47.5335,53.6300833 53.021,53.6325833 56.411,57.0625833 M85.431,25.7100833 L77.731,21.2100833 L77.731,11.5125833 C77.731,10.8800833 77.231,10.3675833 76.6135,10.3675833 L67.776,10.3675833 C67.156,10.3675833 66.656,10.8800833 66.656,11.5125833 L66.656,14.7400833 L52.5535,6.50258333 C51.0285,5.61008333 49.296,5.61008333 47.7735,6.50258333 L14.8935,25.7100833 C13.366,26.6000833 12.501,28.1225833 12.501,29.9050833 L12.501,68.3175833 C12.501,70.1025833 13.366,71.6200833 14.8935,72.5125833 L21.111,76.1450833 L21.111,33.1550833 C21.111,32.3050833 21.526,31.5800833 22.2535,31.1525833 L49.141,15.4200833 C49.8685,14.9925833 50.696,14.9925833 51.426,15.4200833 L78.3135,31.1525833 C79.041,31.5800833 79.4535,32.3050833 79.4535,33.1550833 L79.4535,76.0025833 L85.431,72.5125833 C86.956,71.6200833 87.8235,70.1025833 87.8235,68.3175833 L87.8235,29.9050833 C87.8235,28.1225833 86.956,26.6000833 85.431,25.7100833 M69.491,71.5000833 L51.631,61.3300833 C50.776,60.8400833 49.8035,60.8400833 48.9435,61.3300833 L31.086,71.5000833 C30.2235,71.9925833 29.7335,72.8325833 29.7335,73.8150833 L29.7335,79.7600833 C29.7335,80.7450833 30.2235,81.5825833 31.086,82.0725833 L48.9435,92.2450833 C49.8035,92.7325833 50.776,92.7325833 51.631,92.2450833 L69.491,82.0725833 C70.3535,81.5825833 70.8435,80.7450833 70.8435,79.7600833 L70.8435,73.8150833 C70.8435,72.8325833 70.3535,71.9925833 69.491,71.5000833" id="Fill-1"></path>
                </g>
            </g>
        </g>
    </g>
</svg>